<svg width="44" height="44" viewBox="0 0 44 44" fill="none" xmlns="http://www.w3.org/2000/svg">
<rect width="44" height="44" rx="22" fill="black"/>
<path fill-rule="evenodd" clip-rule="evenodd" d="M21.9999 11.9999C27.5229 11.9999 32 16.477 32 22C32 27.523 27.5229 32.0001 21.9999 32.0001C20.3573 32.0024 18.7395 31.5982 17.2908 30.8239L11.9998 32.0001L13.176 26.7091C12.4017 25.2604 11.9975 23.6426 11.9998 22C11.9998 16.477 16.4769 11.9999 21.9999 11.9999ZM17.375 22.75C17.375 24.0761 17.5268 24.5977 18.4645 25.5354C19.4022 26.4731 20.6738 26.9999 21.9999 26.9999C23.326 26.9999 24.5976 26.4731 25.5353 25.5354C26.473 24.5977 26.6248 24.0761 26.6248 22.75H24.6249C24.6249 23.5456 24.684 23.5589 24.1213 24.1215C23.5587 24.6841 22.7955 25 21.9999 25C21.2042 25 20.441 24.6841 19.8784 24.1215C19.3158 23.5589 19.3749 23.5456 19.3749 22.75H17.375ZM18.4374 18.25C17.7125 18.25 17.1249 18.8376 17.1249 19.5625C17.1249 20.2874 17.7125 20.875 18.4374 20.875C19.1623 20.875 19.7499 20.2874 19.7499 19.5625C19.7499 18.8376 19.1623 18.25 18.4374 18.25ZM25.5624 18.25C24.8375 18.25 24.2499 18.8376 24.2499 19.5625C24.2499 20.2874 24.8375 20.875 25.5624 20.875C26.2873 20.875 26.8749 20.2874 26.8749 19.5625C26.8749 18.8376 26.2873 18.25 25.5624 18.25Z" fill="white"/>
</svg>
