<svg width="44" height="44" viewBox="0 0 44 44" fill="none" xmlns="http://www.w3.org/2000/svg">
<rect x="1" y="1" width="42" height="42" rx="21" stroke="black" stroke-width="2"/>
<path d="M27.362 9.20987L34.7669 16.6135C34.8432 16.6897 34.8969 16.7855 34.922 16.8904C34.9471 16.9952 34.9427 17.105 34.9092 17.2075C34.8758 17.31 34.8145 17.4012 34.7324 17.471C34.6502 17.5408 34.5503 17.5864 34.4437 17.6029L32.724 17.8712L26.1254 11.2714L26.3727 9.53887C26.3883 9.43183 26.4333 9.33123 26.5027 9.24829C26.5721 9.16536 26.6633 9.10336 26.7659 9.06923C26.8685 9.0351 26.9786 9.03018 27.0839 9.05501C27.1892 9.07985 27.2855 9.13346 27.362 9.20987ZM13.3609 31.5049C17.7032 27.6199 22.6884 26.4567 28.111 25.0649L28.6314 20.3784L23.6182 15.364L18.9305 15.8855C17.5399 21.3082 16.3767 26.2922 12.4905 30.6357L10.863 29.0082C14.1635 25.1582 15.4014 20.8964 17.0499 13.747L24.4745 12.921L31.0744 19.5209L30.2495 26.9455C23.1002 28.5964 18.8372 29.833 14.9884 33.1335L13.3609 31.5049ZM19.5255 24.471C19.3027 24.2558 19.1249 23.9983 19.0026 23.7136C18.8803 23.429 18.816 23.1228 18.8133 22.813C18.8106 22.5032 18.8696 22.1959 18.987 21.9091C19.1043 21.6224 19.2775 21.3619 19.4966 21.1428C19.7157 20.9237 19.9762 20.7504 20.263 20.6331C20.5497 20.5158 20.857 20.4568 21.1668 20.4595C21.4766 20.4621 21.7828 20.5265 22.0675 20.6488C22.3522 20.7711 22.6096 20.9488 22.8249 21.1717C23.2499 21.6118 23.4851 22.2012 23.4798 22.813C23.4745 23.4248 23.2291 24.01 22.7964 24.4426C22.3638 24.8752 21.7786 25.1206 21.1668 25.1259C20.555 25.1313 19.9656 24.8961 19.5255 24.471Z" fill="black"/>
</svg>
