<svg width="44" height="44" viewBox="0 0 44 44" fill="none" xmlns="http://www.w3.org/2000/svg">
<rect x="1" y="1" width="42" height="42" rx="21" stroke="black" stroke-width="2"/>
<path d="M19.375 19.1563C19.375 20.002 18.6894 20.6875 17.8437 20.6875C16.998 20.6875 16.3125 20.002 16.3125 19.1563C16.3125 18.3106 16.998 17.625 17.8437 17.625C18.6894 17.625 19.375 18.3106 19.375 19.1563Z" fill="black"/>
<path d="M27.6875 19.1563C27.6875 20.002 27.0019 20.6875 26.1562 20.6875C25.3105 20.6875 24.625 20.002 24.625 19.1563C24.625 18.3106 25.3105 17.625 26.1562 17.625C27.0019 17.625 27.6875 18.3106 27.6875 19.1563Z" fill="black"/>
<path d="M16.5061 32.2947L10.3333 33.6667L11.7053 27.4939C10.8019 25.8037 10.3306 23.9164 10.3333 22C10.3333 15.5565 15.5564 10.3334 21.9999 10.3334C28.4434 10.3334 33.6666 15.5565 33.6666 22C33.6666 28.4435 28.4434 33.6667 21.9999 33.6667C20.0835 33.6694 18.1962 33.1981 16.5061 32.2947ZM16.8444 29.8295L17.6063 30.2379C18.958 30.96 20.4674 31.3363 21.9999 31.3334C23.8459 31.3334 25.6504 30.786 27.1853 29.7604C28.7201 28.7349 29.9164 27.2772 30.6228 25.5718C31.3292 23.8663 31.5141 21.9897 31.1539 20.1792C30.7938 18.3687 29.9049 16.7057 28.5996 15.4004C27.2943 14.0951 25.6313 13.2062 23.8208 12.846C22.0103 12.4859 20.1337 12.6707 18.4282 13.3772C16.7228 14.0836 15.2651 15.2799 14.2395 16.8147C13.214 18.3496 12.6666 20.1541 12.6666 22C12.6666 23.5575 13.0458 25.0532 13.7633 26.3937L14.1704 27.1555L13.4063 30.5937L16.8444 29.8295ZM16.6041 22.875H18.9374C18.9374 23.8033 18.8687 23.8185 19.5251 24.4749C20.1814 25.1313 21.0717 25.5 21.9999 25.5C22.9282 25.5 23.8184 25.1313 24.4748 24.4749C25.1312 23.8185 25.0624 23.8033 25.0624 22.875H27.3958C27.3958 24.4221 27.2187 25.0309 26.1247 26.1248C25.0308 27.2188 23.547 27.8334 21.9999 27.8334C20.4528 27.8334 18.9691 27.2188 17.8751 26.1248C16.7812 25.0309 16.6041 24.4221 16.6041 22.875Z" fill="black"/>
</svg>
