<svg width="44" height="44" viewBox="0 0 44 44" fill="none" xmlns="http://www.w3.org/2000/svg">
<rect x="1" y="1" width="42" height="42" rx="21" stroke="black" stroke-width="2"/>
<path d="M16.225 24.4745L13.7517 26.9501L17.051 30.2495L30.2495 17.0498L26.9502 13.7516L24.4733 16.225L26.1242 17.8746L24.4733 19.5266L22.8237 17.8758L21.174 19.5266L22.8237 21.1763L21.174 22.826L19.5243 21.1763L17.8747 22.826L19.5243 24.4756L17.8747 26.1265L16.225 24.4745ZM27.775 11.276L32.7252 16.225C32.9439 16.4438 33.0668 16.7405 33.0668 17.0498C33.0668 17.3592 32.9439 17.6559 32.7252 17.8746L17.8758 32.724C17.7675 32.8324 17.6388 32.9185 17.4972 32.9772C17.3556 33.0359 17.2037 33.0661 17.0504 33.0661C16.8971 33.0661 16.7453 33.0359 16.6037 32.9772C16.462 32.9185 16.3334 32.8324 16.225 32.724L11.276 27.775C11.0573 27.5562 10.9344 27.2595 10.9344 26.9501C10.9344 26.6408 11.0573 26.3441 11.276 26.1253L26.1253 11.276C26.3441 11.0573 26.6408 10.9344 26.9502 10.9344C27.2595 10.9344 27.5562 11.0573 27.775 11.276ZM24.4733 29.4235L26.1242 27.7738L28.7398 30.3906H30.3895V28.741L27.7738 26.1241L29.4235 24.4745L32.5 27.5486V32.5H27.551L24.4733 29.4235ZM14.5753 19.5243L11.276 16.225C11.1675 16.1166 11.0815 15.988 11.0228 15.8463C10.9641 15.7047 10.9338 15.5529 10.9338 15.3996C10.9338 15.2462 10.9641 15.0944 11.0228 14.9528C11.0815 14.8112 11.1675 14.6825 11.276 14.5741L14.5753 11.2748C14.7941 11.0561 15.0908 10.9332 15.4002 10.9332C15.7095 10.9332 16.0062 11.0561 16.225 11.2748L19.5267 14.5741L17.8747 16.225L15.4013 13.7493L13.7505 15.4001L16.225 17.8735L14.5753 19.5243Z" fill="black"/>
</svg>
