<svg width="186" height="32" viewBox="0 0 186 32" fill="none" xmlns="http://www.w3.org/2000/svg">
<g clip-path="url(#clip0_86_36)">
<path d="M182.877 24.9418L175.525 6.66675H178.179L185.664 24.9418H182.877ZM167.907 24.9418L175.392 6.66675H178.047L170.694 24.9418H167.907ZM171.438 20.0598V17.7623H182.134V20.0598H171.438Z" fill="black"/>
<path d="M160.052 24.9418V6.66675H162.653V24.9418H160.052ZM147.444 24.9418V6.66675H150.045V24.9418H147.444ZM149.62 16.718V14.3684H160.874V16.718H149.62Z" fill="black"/>
<path d="M129.237 24.9418V6.66675H135.501C136.74 6.66675 137.828 6.91912 138.766 7.42386C139.721 7.91119 140.465 8.59868 140.996 9.48633C141.544 10.3566 141.818 11.3748 141.818 12.5409C141.818 13.6722 141.571 14.6817 141.075 15.5693C140.58 16.457 139.89 17.1532 139.005 17.6579C138.138 18.1626 137.138 18.415 136.006 18.415H131.838V24.9418H129.237ZM131.838 16.0392H135.979C136.917 16.0392 137.687 15.7173 138.288 15.0733C138.89 14.4119 139.191 13.5678 139.191 12.5409C139.191 11.4792 138.837 10.6263 138.129 9.98237C137.439 9.33839 136.554 9.0164 135.475 9.0164H131.838V16.0392Z" fill="black"/>
<path d="M119.247 24.9418V6.66675H121.849V24.9418H119.247Z" fill="black"/>
<path d="M94.0684 24.9418V6.66675H96.8288L102.987 15.6215L109.118 6.66675H111.878V24.9418H109.277V10.7917L102.96 19.9553L96.6695 10.8178V24.9418H94.0684Z" fill="black"/>
<path d="M79.6277 25.3334C78.1944 25.3334 76.9292 25.0462 75.8321 24.4719C74.7527 23.8801 73.9122 23.0621 73.3105 22.0178C72.7089 20.9561 72.4081 19.7378 72.4081 18.3628V6.66675H75.0093V18.3628C75.0093 19.2678 75.2039 20.0685 75.5932 20.7647C76.0002 21.4608 76.5487 22.0004 77.2388 22.3833C77.9466 22.7662 78.7606 22.9577 79.6807 22.9577C80.6009 22.9577 81.4149 22.7662 82.1227 22.3833C82.8305 22.0004 83.379 21.4608 83.7683 20.7647C84.1576 20.0685 84.3522 19.2678 84.3522 18.3628V6.66675H86.9799V18.3628C86.9799 19.7378 86.6703 20.9561 86.051 22.0178C85.4493 23.0621 84.5911 23.8801 83.4763 24.4719C82.3792 25.0462 81.0963 25.3334 79.6277 25.3334Z" fill="black"/>
<path d="M56.1 24.9418V6.66675H58.7011V22.5922H67.3275V24.9418H56.1Z" fill="black"/>
<g clip-path="url(#clip1_86_36)">
<path d="M20.6324 1.08802C19.3824 3.00449 18.76 3.94892 17.9432 5.16949C14.982 9.60994 13.8207 12.5095 13.9485 15.155C14.043 17.1598 14.9042 19.0321 16.4765 20.6613C17.6433 21.8709 18.7933 22.622 20.0713 23.0086C20.5213 23.1467 20.6547 23.1578 21.4046 23.1578C22.1548 23.1578 22.2881 23.1467 22.7381 23.0086C25.6995 22.1138 28.283 19.0818 28.7441 15.9613C28.8608 15.1439 28.8276 13.9234 28.6608 13.0783C28.333 11.438 27.5107 9.54366 26.144 7.26268C25.8494 6.77666 24.6494 4.94305 23.4771 3.18674L21.3436 0L20.6324 1.08802Z" fill="#DA3D2F"/>
<path d="M12.0845 3.33045C11.9956 3.57898 11.5122 5.6501 11.3066 6.65526C11.0788 7.77644 10.751 9.82544 10.7899 9.85859C10.801 9.8641 11.1455 10.0353 11.5567 10.2341C11.9678 10.433 12.5845 10.7809 12.9234 11.0018L13.5401 11.405L13.7235 10.8527C14.1235 9.62662 14.7013 8.33424 15.5236 6.82648C15.8181 6.28524 16.0515 5.83788 16.0459 5.83235C16.0349 5.8213 15.5681 5.52306 15.0014 5.16408C14.4347 4.80508 13.5513 4.2307 13.0401 3.88827C12.4845 3.51823 12.0956 3.29179 12.0845 3.33045Z" fill="#DA3D2F"/>
<path d="M29.8081 3.85496C29.3636 4.1532 28.5023 4.71655 27.8911 5.10316C27.28 5.49528 26.7689 5.82667 26.7523 5.83771C26.7355 5.85428 26.7855 5.96474 26.8577 6.09176C27.7523 7.68789 28.5635 9.44972 28.9801 10.6924C29.1079 11.0845 29.2246 11.4104 29.2301 11.4214C29.2357 11.4325 29.458 11.2889 29.7303 11.1066C30.2469 10.7697 30.9414 10.3776 31.6303 10.0572C31.9637 9.89708 32.0249 9.84737 32.0026 9.75349C31.9915 9.68721 31.9248 9.28404 31.8637 8.85324C31.7137 7.76523 31.4082 6.26849 31.0859 5.00926C30.8136 3.93781 30.6414 3.31372 30.6191 3.31372C30.6136 3.31372 30.2469 3.55672 29.8081 3.85496Z" fill="#DA3D2F"/>
<path d="M2.97769 10.5599C3.81665 14.0614 4.88896 16.5633 6.43353 18.6289C6.92801 19.2917 8.01143 20.4073 8.62814 20.8934C10.0338 21.998 11.4784 22.6773 13.1674 23.0362C13.9675 23.202 15.8676 23.2462 16.7177 23.1191C17.0344 23.0694 17.3067 23.0197 17.3233 23.0031C17.34 22.9865 17.2789 22.9202 17.19 22.8539C16.8788 22.622 15.7676 21.5064 15.4288 21.0977C14.362 19.7833 13.5841 18.1595 13.2785 16.5909C13.0507 15.42 13.023 14.4978 13.173 13.2109C13.2341 12.6697 13.2952 12.7525 12.4173 12.1616C10.3616 10.7753 7.69474 10.0352 4.05555 9.83086C3.48884 9.80325 2.97213 9.77563 2.91101 9.77563C2.79434 9.77563 2.79434 9.78115 2.97769 10.5599Z" fill="#DA3D2F"/>
<path d="M38.8921 9.8143C38.092 9.85295 37.1086 9.95237 36.3085 10.0849C33.775 10.4991 31.8248 11.2061 30.1969 12.3051L29.558 12.7359L29.5636 12.9513C29.5636 13.0728 29.5968 13.5257 29.6357 13.9565C29.8858 16.7953 28.7968 19.7114 26.6355 21.9482C26.3688 22.2243 26.0021 22.5723 25.8133 22.727L25.4742 23.0031L25.8243 23.0749C26.0133 23.1136 26.6966 23.1578 27.3356 23.1799C28.269 23.202 28.6301 23.1909 29.1412 23.1191C31.0803 22.8375 32.6583 22.125 34.3362 20.7829C36.5529 19.0045 38.2032 16.2264 39.3033 12.399C39.5422 11.5761 39.9199 10.0021 39.9199 9.83638C39.9199 9.77564 39.7144 9.77564 38.8921 9.8143Z" fill="#DA3D2F"/>
<path d="M4.52355 19.1977C3.35346 19.7642 1.48171 20.9159 0.486845 21.6788L-0.00821162 22.0634L0.579398 22.4437C2.8502 23.9319 5.23127 25.0616 7.15871 25.5672C9.84835 26.2817 11.8482 26.2118 13.6366 25.3442C14.3081 25.0225 15.4909 24.2793 15.272 24.3224C14.6852 24.4325 12.7164 24.1499 11.6081 23.8052C9.24196 23.062 7.32414 21.6995 5.61377 19.5513L5.10581 18.9142L4.52355 19.1977Z" fill="#DA3D2F"/>
<path d="M36.7775 20.0015C34.9713 22.1872 32.6653 23.6148 30.0549 24.1664C28.9822 24.3929 27.3581 24.5096 26.8405 24.402C26.681 24.3669 27.2493 24.7802 27.942 25.21C29.2552 26.0151 30.5739 26.337 32.4687 26.3119C34.9933 26.2786 37.9799 25.2707 41.2884 23.3403C42.3102 22.7467 42.2756 22.8552 41.6473 22.3364C40.7762 21.607 38.8181 20.2847 37.7551 19.7118L37.2497 19.4366L36.7775 20.0015Z" fill="#DA3D2F"/>
<path d="M18.1266 23.0914C17.4433 23.4505 17.0432 23.848 16.732 24.4777C16.5654 24.8146 16.532 24.9471 16.5099 25.3613C16.471 25.9468 16.5654 26.3666 16.8766 27.0072C17.3876 28.0731 19.1101 30.0228 20.8769 31.5526L21.3991 31.9999L21.6102 31.8343C23.4159 30.4149 25.3217 28.3161 25.9606 27.0514C26.2995 26.3775 26.4162 25.5823 26.2661 24.9417C26.0884 24.1683 25.3884 23.3676 24.6161 23.0639C24.4437 22.9919 24.4216 22.9976 24.1049 23.2184C23.3326 23.7596 22.4548 24.0193 21.4102 24.0082C20.3879 24.0027 19.599 23.7596 18.7878 23.1963C18.5933 23.0582 18.4267 22.9478 18.4155 22.9478C18.4044 22.9478 18.2766 23.014 18.1266 23.0914Z" fill="#DA3D2F"/>
<path d="M15.6208 25.3582C15.5542 25.4742 14.4096 26.1866 13.9651 26.402C13.4373 26.6506 12.7262 26.877 12.3206 26.9322L12.0316 26.9709L11.7372 27.4182C11.3649 27.9871 10.8538 28.937 10.8982 28.9812C10.9871 29.0696 12.9928 28.7603 14.1929 28.473C14.8486 28.3129 16.3097 27.8821 16.4432 27.8048C16.4598 27.7937 16.3709 27.5618 16.2319 27.2966C15.9598 26.761 15.7764 26.1259 15.7542 25.6288C15.7375 25.3084 15.6986 25.2311 15.6208 25.3582Z" fill="#DA3D2F"/>
<path d="M27.1389 25.5957C27.2001 25.7146 28.3112 26.4783 28.7454 26.7137C29.2614 26.986 29.9615 27.2445 30.3642 27.3181L30.651 27.3699L30.9248 27.8302C31.2708 28.4154 31.7383 29.3876 31.6919 29.4297C31.599 29.5139 29.6095 29.1137 28.4237 28.7722C27.776 28.5824 26.3359 28.0857 26.2061 28.0024C26.19 27.9905 26.2893 27.7629 26.4402 27.5044C26.7365 26.9817 26.9486 26.3555 26.9933 25.86C27.0246 25.5406 27.067 25.4652 27.1389 25.5957Z" fill="#DA3D2F"/>
</g>
</g>
<defs>
<clipPath id="clip0_86_36">
<rect width="186" height="32" fill="white"/>
</clipPath>
<clipPath id="clip1_86_36">
<rect width="43" height="32" fill="white"/>
</clipPath>
</defs>
</svg>
