<svg width="212" height="36" viewBox="0 0 212 36" fill="none" xmlns="http://www.w3.org/2000/svg">
<g clip-path="url(#clip0_86_147)">
<path d="M23.3905 1.22401C21.9734 3.38004 21.2678 4.44252 20.3419 5.81566C16.9847 10.8112 15.6683 14.0732 15.8131 17.0493C15.9202 19.3047 16.8965 21.4111 18.679 23.244C20.0018 24.6048 21.3056 25.4498 22.7545 25.8847C23.2647 26.04 23.4158 26.0525 24.2661 26.0525C25.1165 26.0525 25.2676 26.04 25.7778 25.8847C29.1351 24.8781 32.064 21.467 32.5867 17.9565C32.719 17.0369 32.6814 15.6638 32.4923 14.7131C32.1206 12.8678 31.1885 10.7366 29.6391 8.1705C29.3051 7.62373 27.9446 5.56092 26.6155 3.58506L24.1969 -1.52588e-05L23.3905 1.22401Z" fill="white"/>
<path d="M13.6999 3.74663C13.5991 4.02623 13.0511 6.35624 12.818 7.48705C12.5598 8.74837 12.1881 11.0535 12.2322 11.0908C12.2448 11.097 12.6354 11.2896 13.1015 11.5133C13.5676 11.737 14.2667 12.1284 14.651 12.3769L15.3501 12.8305L15.558 12.2092C16.0115 10.8298 16.6666 9.3759 17.5988 7.67967C17.9326 7.07077 18.1972 6.56749 18.1909 6.56127C18.1784 6.54884 17.6492 6.21332 17.0067 5.80947C16.3642 5.4056 15.3627 4.75942 14.7833 4.37418C14.1534 3.95788 13.7125 3.70314 13.6999 3.74663Z" fill="white"/>
<path d="M33.7931 4.33688C33.2892 4.6724 32.3127 5.30617 31.6198 5.7411C30.927 6.18224 30.3476 6.55504 30.3288 6.56747C30.3098 6.58611 30.3664 6.71038 30.4483 6.85328C31.4624 8.64892 32.3821 10.631 32.8545 12.029C32.9993 12.4701 33.1316 12.8367 33.1379 12.8491C33.1442 12.8616 33.3962 12.7 33.7049 12.495C34.2906 12.116 35.0779 11.6748 35.859 11.3145C36.2369 11.1343 36.3062 11.0783 36.281 10.9727C36.2684 10.8982 36.1928 10.4446 36.1236 9.95994C35.9534 8.73593 35.6071 7.0521 35.2418 5.63547C34.9331 4.43008 34.7378 3.72798 34.7126 3.72798C34.7063 3.72798 34.2906 4.00136 33.7931 4.33688Z" fill="white"/>
<path d="M3.37616 11.8799C4.32728 15.8191 5.54295 18.6338 7.29401 20.9575C7.8546 21.7032 9.08286 22.9582 9.78202 23.5051C11.3756 24.7478 13.0133 25.512 14.9282 25.9157C15.8352 26.1022 17.9893 26.1519 18.953 26.009C19.3121 25.9531 19.6208 25.8972 19.6396 25.8785C19.6586 25.8598 19.5892 25.7853 19.4885 25.7107C19.1357 25.4498 17.876 24.1947 17.4918 23.735C16.2824 22.2562 15.4006 20.4295 15.0541 18.6648C14.7959 17.3475 14.7644 16.31 14.9344 14.8623C15.0037 14.2534 15.073 14.3466 14.0778 13.6818C11.7473 12.1222 8.72383 11.2896 4.59812 11.0597C3.95564 11.0287 3.36985 10.9976 3.30057 10.9976C3.1683 10.9976 3.1683 11.0038 3.37616 11.8799Z" fill="white"/>
<path d="M44.0916 11.0411C43.1845 11.0846 42.0696 11.1964 41.1625 11.3455C38.2903 11.8115 36.0794 12.6068 34.2339 13.8433L33.5096 14.3279L33.5159 14.5702C33.5159 14.7069 33.5536 15.2164 33.5977 15.7011C33.8813 18.8947 32.6466 22.1753 30.1964 24.6917C29.894 25.0023 29.4783 25.3939 29.2642 25.5679L28.8799 25.8785L29.2768 25.9593C29.491 26.0028 30.2656 26.0525 30.99 26.0774C32.0482 26.1022 32.4577 26.0897 33.0371 26.009C35.2354 25.6922 37.0243 24.8906 38.9265 23.3808C41.4397 21.3801 43.3105 18.2547 44.5577 13.9489C44.8286 13.0231 45.2568 11.2523 45.2568 11.0659C45.2568 10.9976 45.0238 10.9976 44.0916 11.0411Z" fill="white"/>
<path d="M5.12838 21.5975C3.80187 22.2348 1.67988 23.5305 0.552017 24.3887L-0.00922427 24.8214L0.656943 25.2492C3.23132 26.9235 5.93072 28.1944 8.11584 28.7632C11.1651 29.567 13.4322 29.4884 15.4597 28.5123C16.221 28.1504 17.5619 27.3143 17.3138 27.3627C16.6486 27.4867 14.4165 27.1687 13.1601 26.7809C10.4776 25.9448 8.30338 24.412 6.36435 21.9953L5.78849 21.2785L5.12838 21.5975Z" fill="white"/>
<path d="M41.6945 22.5018C39.6468 24.9606 37.0325 26.5667 34.0731 27.1872C32.857 27.442 31.0158 27.5733 30.4289 27.4523C30.2481 27.4128 30.8925 27.8778 31.6777 28.3613C33.1665 29.267 34.6614 29.6292 36.8096 29.6009C39.6717 29.5635 43.0576 28.4295 46.8084 26.2578C47.9668 25.5901 47.9276 25.7122 47.2153 25.1285C46.2278 24.3079 44.0079 22.8203 42.8027 22.1758L42.2298 21.8662L41.6945 22.5018Z" fill="white"/>
<path d="M20.5497 25.9779C19.7751 26.3818 19.3216 26.8291 18.9688 27.5374C18.7798 27.9165 18.742 28.0656 18.7169 28.5315C18.6728 29.1902 18.7798 29.6625 19.1326 30.3831C19.712 31.5823 21.6648 33.7757 23.6677 35.4967L24.2598 36L24.4992 35.8137C26.5462 34.2168 28.7067 31.8557 29.4312 30.4329C29.8153 29.6748 29.9476 28.7801 29.7775 28.0594C29.576 27.1894 28.7824 26.2886 27.9068 25.9469C27.7114 25.866 27.6863 25.8723 27.3273 26.1207C26.4517 26.7297 25.4566 27.0218 24.2724 27.0093C23.1134 27.0031 22.2191 26.7297 21.2994 26.0959C21.0789 25.9406 20.89 25.8163 20.8772 25.8163C20.8647 25.8163 20.7198 25.8909 20.5497 25.9779Z" fill="white"/>
<path d="M17.709 28.4914C17.6335 28.6219 16.3359 29.4233 15.832 29.6657C15.2336 29.9453 14.4274 30.2001 13.9676 30.2621L13.64 30.3057L13.3062 30.809C12.8842 31.4489 12.3047 32.5176 12.3551 32.5673C12.4558 32.6667 14.7297 32.3187 16.0903 31.9956C16.8335 31.8154 18.4901 31.3308 18.6414 31.2439C18.6602 31.2314 18.5594 30.9705 18.4019 30.6722C18.0933 30.0696 17.8854 29.3551 17.8603 28.7959C17.8413 28.4354 17.7972 28.3485 17.709 28.4914Z" fill="white"/>
<path d="M30.6028 28.8549C30.5397 29.4886 30.3948 29.9607 30.0862 30.5945C29.9288 30.9177 29.809 31.1847 29.8217 31.1973C29.8658 31.2408 31.516 31.7316 32.2026 31.9056C33.4246 32.2224 35.919 32.6139 36.0197 32.5145C36.0701 32.471 35.5852 31.5763 35.1063 30.8306L34.7537 30.2777L34.2498 30.1658C33.2357 29.9484 32.1081 29.4513 31.2453 28.8423C30.9932 28.6683 30.7539 28.5007 30.7161 28.4758C30.6657 28.451 30.6342 28.5689 30.6028 28.8549Z" fill="white"/>
</g>
<path d="M207.326 28.0594L198.991 7.5H202L210.486 28.0594H207.326ZM190.355 28.0594L198.841 7.5H201.85L193.514 28.0594H190.355ZM194.357 22.5671V19.9825H206.484V22.5671H194.357Z" fill="white"/>
<path d="M181.449 28.0594V7.5H184.398V28.0594H181.449ZM167.156 28.0594V7.5H170.104V28.0594H167.156ZM169.623 18.8077V16.1643H182.382V18.8077H169.623Z" fill="white"/>
<path d="M146.515 28.0594V7.5H153.616C155.021 7.5 156.254 7.78392 157.318 8.35175C158.401 8.9 159.243 9.67343 159.845 10.672C160.467 11.651 160.778 12.7965 160.778 14.1084C160.778 15.3811 160.497 16.5168 159.935 17.5154C159.374 18.514 158.591 19.2972 157.588 19.865C156.605 20.4329 155.472 20.7168 154.188 20.7168H149.464V28.0594H146.515ZM149.464 18.0441H154.158C155.221 18.0441 156.094 17.6818 156.776 16.9573C157.458 16.2133 157.799 15.2636 157.799 14.1084C157.799 12.914 157.398 11.9545 156.595 11.2301C155.813 10.5056 154.81 10.1434 153.586 10.1434H149.464V18.0441Z" fill="white"/>
<path d="M135.19 28.0594V7.5H138.139V28.0594H135.19Z" fill="white"/>
<path d="M106.644 28.0594V7.5H109.774L116.755 17.5741L123.706 7.5H126.835V28.0594H123.887V12.1406L116.725 22.4496L109.593 12.1699V28.0594H106.644Z" fill="white"/>
<path d="M90.273 28.5C88.6481 28.5 87.2138 28.1769 85.97 27.5308C84.7463 26.865 83.7934 25.9448 83.1114 24.7699C82.4293 23.5755 82.0883 22.2049 82.0883 20.658V7.5H85.0372V20.658C85.0372 21.6762 85.2578 22.5769 85.6992 23.3601C86.1606 24.1434 86.7825 24.7503 87.5648 25.1811C88.3673 25.6119 89.29 25.8273 90.3332 25.8273C91.3764 25.8273 92.2991 25.6119 93.1016 25.1811C93.904 24.7503 94.5259 24.1434 94.9672 23.3601C95.4086 22.5769 95.6292 21.6762 95.6292 20.658V7.5H98.6082V20.658C98.6082 22.2049 98.2572 23.5755 97.555 24.7699C96.873 25.9448 95.9 26.865 94.6362 27.5308C93.3925 28.1769 91.9381 28.5 90.273 28.5Z" fill="white"/>
<path d="M63.6 28.0594V7.5H66.5489V25.4161H76.3285V28.0594H63.6Z" fill="white"/>
<defs>
<clipPath id="clip0_86_147">
<rect width="48.4571" height="36" fill="white"/>
</clipPath>
</defs>
</svg>
