<svg width="44" height="44" viewBox="0 0 44 44" fill="none" xmlns="http://www.w3.org/2000/svg">
<rect width="44" height="44" rx="22" fill="black"/>
<path d="M14.9291 31.482L20.7751 25.636C21.2003 25.75 21.6514 25.7205 22.0581 25.552C22.4649 25.3835 22.8047 25.0856 23.0249 24.7043C23.2451 24.323 23.3332 23.8797 23.2758 23.4432C23.2183 23.0067 23.0184 22.6013 22.7071 22.29C22.3958 21.9787 21.9904 21.7788 21.5539 21.7213C21.1174 21.6638 20.6741 21.752 20.2928 21.9722C19.9115 22.1923 19.6135 22.5322 19.4451 22.9389C19.2766 23.3457 19.2471 23.7967 19.3611 24.222L13.5151 30.068L12.4551 29.008C15.2831 25.708 16.3431 22.054 17.7571 15.926L24.1211 15.218L29.7781 20.875L29.0711 27.239C22.9431 28.654 19.2891 29.714 15.9901 32.543L14.9291 31.482ZM26.5961 12.037L32.9431 18.383C33.0085 18.4483 33.0545 18.5304 33.076 18.6203C33.0976 18.7102 33.0938 18.8043 33.0651 18.8921C33.0364 18.9799 32.9839 19.0581 32.9135 19.1179C32.8431 19.1778 32.7574 19.2169 32.6661 19.231L31.1921 19.461L25.5361 13.804L25.7481 12.319C25.7614 12.2273 25.8 12.141 25.8595 12.0699C25.919 11.9988 25.9971 11.9457 26.0851 11.9165C26.1731 11.8872 26.2675 11.883 26.3577 11.9043C26.4479 11.9256 26.5305 11.9715 26.5961 12.037Z" fill="white"/>
</svg>
