<svg width="44" height="44" viewBox="0 0 44 44" fill="none" xmlns="http://www.w3.org/2000/svg">
<rect width="44" height="44" rx="22" fill="black"/>
<path d="M15.6359 22.707L17.4649 24.536L18.8789 23.121L17.0499 21.293L18.4649 19.879L20.2929 21.707L21.7069 20.293L19.8799 18.464L21.2939 17.05L23.1219 18.879L24.5369 17.464L22.7079 15.636L25.5369 12.808C25.7245 12.6205 25.9788 12.5152 26.2439 12.5152C26.5091 12.5152 26.7634 12.6205 26.9509 12.808L31.1939 17.05C31.3814 17.2375 31.4867 17.4918 31.4867 17.757C31.4867 18.0222 31.3814 18.2765 31.1939 18.464L18.4649 31.192C18.3721 31.285 18.2618 31.3587 18.1404 31.4091C18.019 31.4594 17.8889 31.4853 17.7574 31.4853C17.626 31.4853 17.4959 31.4594 17.3745 31.4091C17.2531 31.3587 17.1428 31.285 17.0499 31.192L12.8079 26.95C12.6205 26.7625 12.5151 26.5082 12.5151 26.243C12.5151 25.9778 12.6205 25.7235 12.8079 25.536L15.6359 22.707ZM24.1209 28.363L28.3639 24.121L30.9999 26.756V31H26.7579L24.1209 28.363ZM15.6359 19.878L12.8079 17.05C12.715 16.9571 12.6412 16.8468 12.5909 16.7254C12.5406 16.604 12.5146 16.4739 12.5146 16.3425C12.5146 16.2111 12.5406 16.081 12.5909 15.9596C12.6412 15.8382 12.715 15.7279 12.8079 15.635L15.6359 12.807C15.8235 12.6195 16.0778 12.5142 16.3429 12.5142C16.6081 12.5142 16.8624 12.6195 17.0499 12.807L19.8799 15.635L15.6359 19.878Z" fill="white"/>
</svg>
