<svg width="24" height="24" viewBox="0 0 24 24" fill="none" xmlns="http://www.w3.org/2000/svg">
<path d="M9.366 10.682C10.3045 12.3304 11.6696 13.6955 13.318 14.634L14.202 13.396C14.3442 13.1969 14.5543 13.0569 14.7928 13.0023C15.0313 12.9478 15.2814 12.9825 15.496 13.1C16.9101 13.8735 18.4721 14.3384 20.079 14.464C20.3298 14.4839 20.5638 14.5975 20.7345 14.7823C20.9052 14.9671 21 15.2094 21 15.461V19.923C21.0001 20.1706 20.9083 20.4094 20.7424 20.5932C20.5765 20.777 20.3483 20.8927 20.102 20.918C19.572 20.9727 19.038 21 18.5 21C9.94 21 3 14.06 3 5.5C3 4.962 3.02733 4.428 3.082 3.898C3.10725 3.6517 3.22298 3.42352 3.40679 3.25763C3.5906 3.09175 3.82941 2.99995 4.077 3H8.539C8.79056 2.99997 9.0329 3.09475 9.21768 3.26545C9.40247 3.43615 9.51613 3.67022 9.536 3.921C9.66157 5.52791 10.1265 7.08994 10.9 8.504C11.0175 8.71856 11.0522 8.96874 10.9977 9.2072C10.9431 9.44565 10.8031 9.65584 10.604 9.798L9.366 10.682ZM6.844 10.025L8.744 8.668C8.20465 7.50414 7.83522 6.26887 7.647 5H5.01C5.00333 5.16667 5 5.33333 5 5.5C5 12.956 11.044 19 18.5 19C18.6667 19 18.8333 18.9967 19 18.99V16.353C17.7311 16.1648 16.4959 15.7953 15.332 15.256L13.975 17.156C13.4287 16.9435 12.8981 16.6929 12.387 16.406L12.329 16.373C10.3677 15.2566 8.74344 13.6323 7.627 11.671L7.594 11.613C7.30678 11.1021 7.05615 10.5714 6.844 10.025Z" fill="black"/>
</svg>
